<svg shape-rendering="crispEdges" width="42" height="42" viewBox="0 0 42 42" fill="none" xmlns="http://www.w3.org/2000/svg">
<g clip-path="url(#clip0_68_2731)">
<path d="M27 0H15V3H27V0Z" fill="white"/>
<path d="M33 3H9V6H33V3Z" fill="white"/>
<path d="M36 6H6V9H36V6Z" fill="white"/>
<path d="M6 9H3V12H6V9Z" fill="white"/>
<path d="M24 9H12V12H24V9Z" fill="white"/>
<path d="M39 9H30V12H39V9Z" fill="white"/>
<path d="M21 12H15V15H21V12Z" fill="white"/>
<path d="M39 12H33V15H39V12Z" fill="white"/>
<path d="M21 15H15V18H21V15Z" fill="white"/>
<path d="M39 15H33V18H39V15Z" fill="white"/>
<path d="M3 18H0V21H3V18Z" fill="white"/>
<path d="M21 18H15V21H21V18Z" fill="white"/>
<path d="M42 18H33V21H42V18Z" fill="white"/>
<path d="M6 21H0V24H6V21Z" fill="white"/>
<path d="M24 21H12V24H24V21Z" fill="white"/>
<path d="M42 21H30V24H42V21Z" fill="white"/>
<path d="M42 24H0V27H42V24Z" fill="white"/>
<path d="M42 27H0V30H42V27Z" fill="white"/>
<path d="M42 30H0V33H42V30Z" fill="white"/>
<path d="M42 33H0V36H42V33Z" fill="white"/>
<path d="M6 36H0V39H6V36Z" fill="white"/>
<path d="M18 36H9V39H18V36Z" fill="white"/>
<path d="M33 36H24V39H33V36Z" fill="white"/>
<path d="M42 36H36V39H42V36Z" fill="white"/>
<path d="M3 39H0V42H3V39Z" fill="white"/>
<path d="M18 39H12V42H18V39Z" fill="white"/>
<path d="M30 39H24V42H30V39Z" fill="white"/>
<path d="M42 39H39V42H42V39Z" fill="white"/>
<path d="M12 9H6V12H12V9Z" fill="#DEDEFF"/>
<path d="M30 9H24V12H30V9Z" fill="#DEDEFF"/>
<path d="M15 12H3V15H15V12Z" fill="#DEDEFF"/>
<path d="M33 12H21V15H33V12Z" fill="#DEDEFF"/>
<path d="M15 15H9V18H15V15Z" fill="#DEDEFF"/>
<path d="M33 15H27V18H33V15Z" fill="#DEDEFF"/>
<path d="M15 18H9V21H15V18Z" fill="#DEDEFF"/>
<path d="M33 18H27V21H33V18Z" fill="#DEDEFF"/>
<path d="M12 21H6V24H12V21Z" fill="#DEDEFF"/>
<path d="M30 21H24V24H30V21Z" fill="#DEDEFF"/>
<path d="M9 15H3V18H9V15Z" fill="#2121FF"/>
<path d="M27 15H21V18H27V15Z" fill="#2121FF"/>
<path d="M9 18H3V21H9V18Z" fill="#2121FF"/>
<path d="M27 18H21V21H27V18Z" fill="#2121FF"/>
<path shape-rendering="auto" d="M31.6067 9.69019C31.6064 10.0323 31.6113 10.3743 31.6208 10.7163L34.7504 10.7227C34.7485 11.0686 34.7501 11.4145 34.7549 11.7604C35.083 11.7635 35.4661 11.7761 35.7894 11.7617C35.7904 12.0733 35.7808 12.4573 35.7945 12.7628L35.8163 12.7871C35.8697 12.7897 35.9313 12.7911 35.9991 12.7936C36.0615 14.7903 36.1168 16.5661 36.1447 17.5958C36.1631 18.2793 36.1699 18.6327 36.1729 18.7688C36.1735 18.7978 36.1739 18.8293 36.1748 18.8483C36.175 18.8518 36.1756 18.8581 36.1761 18.8656C36.1762 18.8675 36.1778 18.8921 36.1825 18.9221C36.1839 18.9311 36.1867 18.9481 36.1915 18.9689C36.1945 18.9821 36.2066 19.0327 36.2338 19.0926C36.2359 19.0968 36.2391 19.1013 36.2421 19.1068L35.7875 19.108L35.7926 20.1348C35.4921 20.1292 35.0904 20.1106 34.7985 20.1284C34.7021 20.3845 34.8102 21.3995 34.7254 21.7926L34.7286 22.2351L33.7307 22.2274C33.7296 22.3656 33.7301 23.1794 33.7096 23.2786L32.6956 23.2773C32.6955 23.6287 32.7012 23.9879 32.67 24.3374C32.3308 24.3033 31.9648 24.3172 31.622 24.3226L31.6182 25.3751C29.2037 25.3736 26.725 25.3421 24.3161 25.3731L24.3097 24.3361C24.0691 24.3203 23.669 24.3536 23.3669 24.3412L23.2855 24.3201C23.2182 24.1795 23.2407 23.5015 23.2399 23.3061L23.2175 23.2875C22.9749 23.2629 22.467 23.2764 22.2048 23.276C22.2119 22.9412 22.2122 22.6065 22.2055 22.2717L22.1856 22.2531C21.7997 22.2215 21.5455 22.2256 21.1563 22.2383L21.139 21.2032C20.9144 21.2225 20.8642 21.2166 20.6406 21.1776C20.4778 21.1725 20.2759 21.1807 20.1096 21.1827C20.1043 20.8446 20.1013 20.5063 20.1007 20.1681C19.9613 20.1198 19.2609 20.1395 19.0688 20.1412L19.072 15.9604C18.8093 15.9623 17.1468 15.9484 16.9812 15.9957L16.9453 16.0438C16.8858 17.2017 16.9594 18.4047 16.9325 19.5666C16.9283 19.7497 16.9296 19.9518 16.9357 20.1342C16.6678 20.1355 16.1449 20.1248 15.9 20.1605L15.9025 20.2009C15.9021 20.3848 15.9192 21.0764 15.8628 21.2C15.5841 21.229 15.1392 21.2153 14.8591 21.2007V22.2319L14.3217 22.2345C14.1682 22.2394 13.9376 22.2537 13.7907 22.2428L13.7932 23.2805L12.7639 23.2799C12.7586 23.6293 12.7562 23.9789 12.7568 24.3284C12.3859 24.3154 12.0939 24.3218 11.7224 24.338C11.7079 24.6833 11.7021 25.0289 11.7051 25.3744L4.3882 25.3731L4.3805 24.3477C4.03864 24.3566 3.75939 24.3484 3.41723 24.3323C3.3873 24.329 3.37685 24.3109 3.34476 24.2848L3.34156 24.0918C3.3014 23.7696 3.30768 23.6002 3.31975 23.2734L2.28722 23.2824C2.24077 23.0283 2.36101 22.3755 2.19872 22.2262C1.88324 22.2341 1.56772 22.2391 1.25212 22.2409L1.24955 21.1782C1.225 20.9333 1.27581 20.2792 1.20017 20.1297L0.204837 20.1367L0.216381 19.1048L0.106715 19.1055C0.106192 18.963 0.104631 18.806 0.0996599 18.6373C0.099464 18.6307 0.0987712 18.624 0.0983773 18.6174C0.0760735 18.2452 0.0393746 18.0387 -0.00359333 16.7723C-0.0345502 15.8599 -0.0667564 14.4169 -0.100433 12.7955C0.00291267 12.7941 0.105618 12.7926 0.207402 12.7916L0.208044 11.7578C0.538546 11.7694 0.917763 11.7594 1.25212 11.7585L1.25661 10.7227L4.39012 10.724C4.3765 10.3705 4.40981 9.99754 4.39653 9.69083L11.691 9.69275C11.6932 9.89605 11.6875 10.5784 11.748 10.7234C12.4261 10.7101 13.1209 10.7359 13.79 10.7195C13.791 10.958 13.7818 11.3701 13.8054 11.5936L13.824 11.7668C14.1843 11.7798 14.4828 11.7748 14.8437 11.7623L14.8572 12.8218C15.183 12.8272 15.5724 12.8437 15.891 12.8115L15.9308 12.7993L15.9391 11.7706C17.2467 11.8058 18.7819 11.7928 20.0942 11.7706C20.1238 12.1117 20.1123 12.4823 20.109 12.8269C20.451 12.8333 20.7992 12.8164 21.1415 12.8038L21.1499 11.7604C21.4965 11.7662 21.8553 11.7593 22.2029 11.7572L22.21 10.7067C22.7299 10.7209 23.4808 10.7419 23.9916 10.7054C24.0863 10.6854 24.212 10.6952 24.3116 10.6977L24.318 9.69339L31.6067 9.69019ZM10.8489 13.6305C10.2836 13.4696 9.49406 13.4044 8.67289 13.71C8.19263 13.7221 7.45677 13.7275 6.88616 13.728C6.42228 13.7284 6.10682 13.7203 5.91904 13.7119C5.86014 13.7093 5.81947 13.7059 5.79462 13.7042C5.27384 13.6344 4.75793 13.6923 4.28366 13.8575C4.16735 13.7527 4.01385 13.6883 3.845 13.6882C3.48235 13.6882 3.18772 13.9823 3.18764 14.3449C3.18764 14.3933 3.1931 14.4406 3.20303 14.486C3.13108 14.5487 3.06109 14.6139 2.9946 14.6829C2.9504 14.6735 2.90435 14.6694 2.85736 14.6694C2.49467 14.6694 2.20064 14.9635 2.20064 15.3261C2.20069 15.4698 2.24743 15.6022 2.3257 15.7103C2.27668 15.8299 2.2335 15.9534 2.19807 16.081C1.85852 17.3045 2.2591 18.558 3.12928 19.3665C3.16189 19.4673 3.19966 19.5659 3.24151 19.6621C3.2409 19.6737 3.24023 19.6857 3.24023 19.6974C3.24034 19.9509 3.38391 20.1703 3.59424 20.2797C3.8424 20.6217 4.1547 20.9142 4.5139 21.1391C4.57116 21.2086 4.63208 21.2747 4.69475 21.3392C5.2709 22.2859 6.31257 22.9181 7.50183 22.9181C7.7384 22.9181 7.96887 22.8919 8.19125 22.8444C8.55766 22.9861 8.9549 23.0663 9.37129 23.0663C10.5915 23.0663 11.6535 22.3991 12.2194 21.411C12.2348 21.4121 12.2506 21.4136 12.2662 21.4136C12.6288 21.4135 12.9229 21.1195 12.9229 20.7569C12.9229 20.6208 12.8816 20.4942 12.8107 20.3894C12.9317 20.1794 13.0319 19.9544 13.1044 19.7147C13.1582 19.6487 13.2155 19.5723 13.2757 19.4877C13.2882 19.4884 13.3008 19.4896 13.3135 19.4896C13.6762 19.4896 13.9702 19.1956 13.9702 18.8329C13.9702 18.6659 13.9075 18.5139 13.8048 18.3981C13.9506 17.893 14.0164 17.255 13.8311 16.5504L13.7695 16.342L13.7246 16.2144C13.4921 15.5895 13.1328 15.1645 12.8877 14.9202C12.7285 14.7615 12.5711 14.6369 12.4638 14.5559C12.4616 14.554 12.459 14.5522 12.4567 14.5501C12.417 14.5153 12.2501 14.3668 12.0507 14.2224C11.9867 14.176 11.8907 14.1091 11.7666 14.0339C11.6784 13.7755 11.4341 13.5895 11.1458 13.5894C11.0537 13.5894 10.9656 13.6078 10.8861 13.642C10.8737 13.6384 10.8614 13.6341 10.8489 13.6305ZM25.9765 13.3169C25.116 13.3371 24.5194 13.7568 24.2115 14.0544C23.9442 14.2267 23.7036 14.4506 23.5061 14.7239C23.2921 15.0201 23.1484 15.3456 23.0725 15.6808C22.9885 15.7178 22.9066 15.7589 22.8263 15.8027C22.7716 15.7879 22.7144 15.7796 22.655 15.7796C22.2924 15.7796 21.9977 16.0736 21.9977 16.4363C21.9977 16.4527 21.9991 16.4689 22.0003 16.485C21.9759 16.5155 21.9514 16.5461 21.9284 16.578C21.8866 16.8208 21.8664 17.145 21.8675 17.2238C21.8689 17.2618 21.8723 17.3225 21.8739 17.345C21.8769 17.3838 21.88 17.4142 21.881 17.4233C21.8834 17.4461 21.8862 17.4642 21.8867 17.4688C21.8883 17.4814 21.8896 17.4916 21.8899 17.4945C21.891 17.5022 21.892 17.5095 21.8925 17.5131C21.8937 17.5216 21.8948 17.5324 21.8964 17.5438C21.8966 17.5462 21.8984 17.5538 21.9002 17.5663C21.9054 17.602 21.9135 17.6598 21.9239 17.7318C21.9469 17.8896 21.9795 18.1129 22.0009 18.2544C22.0813 18.7861 22.2648 19.1945 22.4069 19.464C22.472 19.5876 22.5371 19.6973 22.571 19.7545C22.6136 19.8264 22.627 19.8481 22.639 19.8699C22.7203 20.0173 22.7263 20.0483 22.8564 20.3233C22.977 20.5782 23.1431 20.8952 23.4163 21.2558C23.4201 21.2631 23.4241 21.2709 23.4285 21.2789C23.9914 22.3183 24.9542 22.6268 25.4487 22.7116C25.8569 22.7817 26.243 22.7526 26.2907 22.7501C26.3237 22.7484 26.3509 22.7465 26.3728 22.7456C26.9433 22.8799 27.4919 22.9137 27.8613 22.9246C28.0768 22.9309 28.2732 22.9303 28.4161 22.9297C28.4932 22.9294 28.5452 22.929 28.5931 22.929C28.6311 22.9291 28.6483 22.9296 28.6521 22.9297C29.3032 22.9545 29.8216 22.7605 30.1444 22.5975C30.4638 22.4362 30.7051 22.248 30.846 22.1306C30.9899 22.0108 31.117 21.8895 31.1738 21.8356C31.2578 21.7557 31.2543 21.7605 31.2366 21.7753C31.4464 21.6 31.6043 21.424 31.7073 21.3014C31.8124 21.1764 31.9015 21.0571 31.9594 20.9781C32.046 20.8599 32.0435 20.8611 32.0998 20.7851C32.1161 20.7631 32.1279 20.7478 32.1364 20.737C32.1425 20.7292 32.1456 20.7248 32.1467 20.7235C32.204 20.6563 32.258 20.5859 32.3083 20.5132C32.5552 20.1563 32.7202 19.7798 32.8303 19.4742C32.8551 19.4055 32.8768 19.3357 32.8957 19.2652C32.9887 18.9188 33.0047 18.6195 33.0073 18.4667C33.274 18.3832 33.4678 18.1344 33.4678 17.8401C33.4678 17.6878 33.415 17.5482 33.328 17.4367C33.4817 17.1032 33.5678 16.732 33.5678 16.3407C33.5678 16.1842 33.5547 15.8845 33.453 15.516L33.4036 15.3537L33.3921 15.3223C33.3938 15.3031 33.3953 15.2836 33.3953 15.2639C33.3953 15.0295 33.2723 14.8241 33.0875 14.7079C32.9991 14.575 32.9 14.4498 32.7899 14.3347C32.7608 13.9988 32.4798 13.735 32.1364 13.735C32.0822 13.735 32.0296 13.7419 31.9793 13.7543C31.4823 13.5214 31.0355 13.4928 30.8108 13.4913C30.5371 13.4896 30.2807 13.5331 30.1207 13.5657C29.9558 13.5521 29.7886 13.5504 29.6205 13.5625C29.2275 13.5353 28.7399 13.5052 28.2378 13.474C27.7106 13.4412 27.2331 13.4081 26.932 13.3906C26.8213 13.3842 26.708 13.3804 26.5998 13.3765C26.4097 13.3349 26.2017 13.3116 25.9765 13.3169Z" fill="#FD97D0"/>
<path shape-rendering="auto" d="M25.1136 23.8484C25.1083 24.1107 25.1008 24.3725 25.0841 24.5519C25.0829 24.3167 25.0792 24.0812 25.0738 23.8458C25.0869 23.8468 25.1002 23.8474 25.1136 23.8484ZM31.6711 13.7539C31.7611 13.8004 31.863 13.8276 31.9712 13.8277H32.1175C32.2199 13.8276 32.3165 13.8029 32.4029 13.761C32.5054 13.7616 32.5735 13.7619 32.619 13.7623C32.6303 13.7667 32.6415 13.7717 32.653 13.7764C32.6937 13.8197 32.7404 13.857 32.7915 13.888C32.7939 13.9165 32.7977 13.9524 32.8018 13.988C32.7857 14.0449 32.7768 14.1049 32.7768 14.167C32.7768 14.4529 32.9597 14.699 33.2148 14.789V14.8807C33.2742 14.8815 33.3336 14.8815 33.3931 14.882V16.781C33.3931 16.8686 33.4101 16.9522 33.4412 17.0285C33.4215 17.357 33.408 17.6941 33.4104 17.9373C33.4113 18.033 33.4156 18.1579 33.4328 18.2669C33.377 18.2861 33.3245 18.3136 33.2757 18.3471C33.2273 18.3357 33.1769 18.3292 33.125 18.3291C32.7624 18.3291 32.4684 18.6233 32.4683 18.9859V20.1588C32.4683 20.1734 32.4693 20.1881 32.4702 20.2025C32.4289 20.1941 32.3863 20.1896 32.3426 20.1896C31.98 20.1896 31.686 20.4838 31.6859 20.8463C31.6859 20.9621 31.7154 21.0713 31.7679 21.1657C31.6725 21.2104 31.5915 21.28 31.5281 21.3626C31.4518 21.3316 31.3686 21.3139 31.2812 21.3139C30.9186 21.3139 30.6246 21.608 30.6245 21.9706C30.6245 22.0648 30.6445 22.1545 30.6803 22.2355C30.6814 22.2529 30.6818 22.2703 30.6841 22.2874C30.6745 22.2989 30.6668 22.3103 30.6585 22.3195L24.4722 22.3201C24.448 22.3201 24.424 22.3214 24.4004 22.324L24.3395 22.3336C24.3321 22.3352 24.3198 22.3382 24.3125 22.34C24.2976 22.3437 24.2828 22.3475 24.2683 22.3522C24.2601 22.3549 24.252 22.3581 24.2439 22.3612C24.2314 22.3658 24.2189 22.3705 24.2067 22.3759C24.2041 22.3771 24.2016 22.3786 24.199 22.3798L24.022 21.9186L23.9823 21.8301C23.8816 21.6344 23.7347 21.51 23.6141 21.4338C23.5472 21.3915 23.4851 21.3617 23.441 21.3421C23.419 21.3323 23.3985 21.3239 23.3852 21.3184C23.3695 21.3118 23.3652 21.3101 23.3621 21.3087C23.3511 21.3039 23.3397 21.2992 23.3307 21.2953C23.3211 21.2911 23.3134 21.2871 23.3057 21.2837C23.3024 21.2823 23.2995 21.2805 23.2967 21.2792C23.2575 21.2361 23.208 21.1875 23.1498 21.1452L23.1043 21.1151L23.0459 21.0843C23.1067 20.9847 23.1428 20.8683 23.1428 20.7431C23.1428 20.6968 23.1372 20.6519 23.128 20.6084C23.1372 20.5647 23.1427 20.5195 23.1428 20.4731C23.1428 20.4161 23.134 20.3611 23.1203 20.3083C23.1342 20.2551 23.1428 20.1997 23.1428 20.1422C23.1428 20.0519 23.1244 19.9658 23.0915 19.8876C23.0928 19.8708 23.0947 19.854 23.0947 19.8369C23.0945 19.4743 22.8006 19.1802 22.438 19.1802C22.3997 19.1802 22.3622 19.1842 22.3257 19.1904C22.2295 19.125 22.1156 19.0841 21.9922 19.0782C21.9903 18.9976 21.9868 18.9124 21.9852 18.8223C21.9741 18.1996 21.9699 17.3676 21.9691 16.5392C22.092 16.4194 22.1326 16.2854 22.134 16.2814C22.1567 16.2152 22.1639 16.1575 22.1648 16.1518C22.1719 16.1013 22.1753 16.0369 22.1763 16.0165C22.1785 15.9745 22.1827 15.9293 22.1872 15.8812C22.2152 15.8773 22.244 15.8739 22.2725 15.8684C22.2793 15.8671 22.2857 15.8639 22.2924 15.862C22.3588 15.8846 22.4299 15.8979 22.504 15.8979C22.8666 15.8978 23.1607 15.6037 23.1607 15.2412C23.1607 15.1914 23.1545 15.1377 23.1441 15.0911C23.1997 15.0144 23.241 14.9253 23.2595 14.8288C23.2686 14.819 23.276 14.8077 23.2845 14.7974C23.3712 14.8395 23.4683 14.8641 23.5712 14.8641C23.9338 14.864 24.2279 14.57 24.2279 14.2074C24.2279 14.0662 24.1831 13.9354 24.1073 13.8283C24.1183 13.8224 24.1294 13.8164 24.1407 13.8104C24.1906 13.807 24.2409 13.7983 24.2907 13.7828C24.302 13.7822 24.3176 13.7817 24.3382 13.7809C24.4325 13.7773 24.6043 13.7739 24.9244 13.7719C25.5136 13.7734 26.6031 13.7819 27.1504 13.786C27.6842 13.79 27.6998 13.7905 27.7045 13.7905C27.7578 13.7905 27.8095 13.7826 27.8591 13.7706C27.9323 13.7668 28.0839 13.7633 28.3933 13.761C29.0381 13.7563 30.2767 13.7592 30.8996 13.7604C31.5196 13.7615 31.522 13.761 31.5236 13.761C31.5565 13.761 31.5888 13.758 31.6204 13.7533C31.6374 13.7535 31.6543 13.7538 31.6711 13.7539Z" fill="#D97F52" fill-opacity="0.4"/>
<path shape-rendering="auto" d="M22.207 19.0742C22.5686 19.071 22.9107 19.1033 23.2492 19.1023C23.2418 19.7754 23.2177 20.5127 23.2277 21.1804L24.3143 21.1876C24.3039 21.5229 24.3006 21.9066 24.2704 22.2366C24.0411 22.235 23.4193 22.2494 23.2431 22.1921C23.249 21.8732 23.2351 21.5061 23.2308 21.1834C22.9957 21.1748 22.4417 21.1385 22.246 21.2083C22.1558 20.949 22.1779 20.6899 22.1814 20.4165C22.2258 19.944 22.176 19.5114 22.207 19.0742Z" fill="#C7273F"/>
<path shape-rendering="auto" d="M24.2949 12.7915C25.0168 12.8381 26.0642 12.8079 26.8076 12.8072L31.0966 12.8139C31.3738 12.8147 32.5093 12.7452 32.6634 12.8745L32.6557 12.9966C32.3917 13.3119 32.6032 13.5388 32.444 13.811C30.7796 13.9176 28.9476 13.8646 27.2679 13.893C26.4473 13.9068 25.1259 13.7926 24.3619 13.8911C24.3281 14.1527 24.3002 14.607 24.2435 14.8284C23.9172 14.8775 23.6223 14.9243 23.2995 14.9918C23.2883 15.184 23.2073 15.8512 23.2401 15.9592L22.1791 15.9643C22.1879 16.872 22.1258 18.2649 22.1735 19.071L21.1406 19.1003C21.1304 18.057 21.1304 17.0137 21.1406 15.9703C21.4753 15.929 21.8314 15.9329 22.17 15.9296L22.1847 14.9216C22.5673 14.8909 22.8637 14.8992 23.2448 14.9211L23.2455 13.8555C23.5872 13.8613 23.9437 13.856 24.2867 13.856C24.281 13.5126 24.2919 13.1375 24.2949 12.7915Z" fill="#C7273F"/>
<path shape-rendering="auto" d="M24.3177 9.69371L31.6068 9.69019C31.6065 10.0323 31.611 10.3744 31.6205 10.7164L34.7506 10.7226C34.7487 11.0685 34.7501 11.4144 34.7549 11.7603C33.7364 11.785 32.6397 11.7644 31.615 11.7608L31.6058 10.7202C29.2721 10.6773 26.5868 10.8032 24.3119 10.6977L24.3177 9.69371Z" fill="#A6202F"/>
<path shape-rendering="auto" d="M30.544 21.1901C30.7987 21.1861 31.4182 21.1555 31.6237 21.2111L31.6115 22.2344C31.2921 22.2352 30.8874 22.2255 30.5757 22.2495L30.5479 23.3043L26.1019 23.3011C25.7487 23.3013 24.6037 23.2678 24.34 23.3077C24.2854 23.4462 24.2869 23.4802 24.2803 23.6225C24.2676 23.514 24.2729 23.3931 24.2739 23.2827L24.2867 22.9363C24.3035 22.7598 24.3034 22.4261 24.3086 22.2382L30.5465 22.2408C30.5524 21.8973 30.5452 21.5352 30.544 21.1901Z" fill="#C7273F"/>
<path shape-rendering="auto" d="M11.716 24.3192L11.7226 24.3379C11.7082 24.6832 11.7024 25.0288 11.7053 25.3744L4.38818 25.3732L4.3804 24.3477C6.03814 24.3338 7.69591 24.3312 9.35369 24.3397C10.1032 24.3395 10.9745 24.358 11.716 24.3192Z" fill="#A6202F"/>
<path shape-rendering="auto" d="M36.5776 19.106L35.5546 19.1053L35.5463 13.8247C35.5397 13.8244 35.5329 13.8237 35.5264 13.8234C35.5396 13.7834 35.548 13.7502 35.5514 13.733C35.5592 13.694 35.5632 13.656 35.5655 13.6361C35.5886 13.4203 35.604 13.1662 35.5989 12.989V12.9762L35.5899 12.8672C35.5874 12.847 35.5841 12.8303 35.5816 12.8152C35.966 12.8197 36.3459 12.8185 36.5782 12.8043L36.5776 19.106Z" fill="#A6202F"/>
<path shape-rendering="auto" d="M-0.579498 12.8007C-0.208162 12.8098 0.176602 12.8081 0.560777 12.8039C0.490421 12.9078 0.44928 13.0333 0.448545 13.1681C0.448081 13.2542 0.448545 13.3529 0.448545 13.3593C0.448545 13.3988 0.452115 13.4377 0.458806 13.4753C0.46333 13.5616 0.46721 13.6009 0.47035 13.6318C0.470752 13.6358 0.471159 13.6401 0.471633 13.644C0.476053 13.6809 0.482015 13.7147 0.490231 13.7626C0.493515 13.7818 0.497575 13.8006 0.502416 13.8191C0.487382 13.8195 0.472009 13.8193 0.456882 13.8197L0.460089 17.3637C0.460421 17.9016 0.438532 18.5917 0.46073 19.1119C0.12469 19.1012 -0.23861 19.1075 -0.576933 19.1068L-0.579498 12.8007Z" fill="#A6202F"/>
<path shape-rendering="auto" d="M31.6219 24.3226L31.618 25.3749C29.2034 25.3735 26.7248 25.3418 24.3158 25.3729L24.3098 24.3359C26.7472 24.35 29.1846 24.3455 31.6219 24.3226Z" fill="#A6202F"/>
<path shape-rendering="auto" d="M4.39637 9.69104L11.6911 9.69289C11.6933 9.89622 11.6873 10.5787 11.7479 10.7235L11.7215 10.7489C11.4949 10.6903 9.89675 10.7093 9.57732 10.7091C7.84813 10.7025 6.11894 10.7074 4.38984 10.7239C4.37621 10.3704 4.40964 9.99775 4.39637 9.69104Z" fill="#A6202F"/>
<path shape-rendering="auto" d="M34.2236 15.0702L34.3422 15.0765C34.4444 15.2522 34.3934 17.8108 34.391 18.2193L33.3594 18.2268C33.348 18.9162 33.3597 19.6166 33.3454 20.2992L32.2807 20.2997L32.2865 20.2102C32.382 19.8013 32.2319 18.8892 32.3609 18.2274C32.6829 18.2277 33.029 18.21 33.3527 18.199C33.3281 17.1973 33.3516 16.0974 33.3541 15.0883C33.6588 15.0901 33.9198 15.0891 34.2236 15.0702Z" fill="#C7273F"/>
<path shape-rendering="auto" d="M19.0716 15.9601C19.4252 15.9217 19.7425 15.9338 20.0962 15.9409C20.1105 17.3235 20.067 18.786 20.1054 20.1471L20.1006 20.1679C19.9612 20.1196 19.2602 20.1393 19.0685 20.141L19.0716 15.9601Z" fill="#A6202F"/>
<path shape-rendering="auto" d="M15.9144 15.9468C16.163 15.9416 16.6898 15.9068 16.8993 15.9523L16.9452 16.044C16.8857 17.2019 16.9595 18.4048 16.9325 19.5667C16.9283 19.7498 16.9294 19.9519 16.9355 20.1343C16.6676 20.1356 16.145 20.1251 15.9001 20.1607C15.9166 20.0448 15.9096 19.9233 15.9105 19.8065C15.9204 18.5199 15.8749 17.2332 15.9144 15.9468Z" fill="#A6202F"/>
<path shape-rendering="auto" d="M15.9391 11.7709C17.2467 11.8061 18.7816 11.793 20.0939 11.7709C20.0598 12.0966 20.0686 12.47 20.0688 12.8014C18.6939 12.7985 17.3048 12.7855 15.9311 12.7992L15.9391 11.7709Z" fill="#A6202F"/>
<path shape-rendering="auto" d="M1.25636 10.7229L4.38981 10.7239C4.42299 11.0046 4.39433 11.4659 4.38436 11.7627C3.34022 11.77 2.29603 11.7685 1.25189 11.7584L1.25636 10.7229Z" fill="#A6202F"/>
<path shape-rendering="auto" d="M13.8237 11.7666C14.1842 11.7796 14.4827 11.7749 14.8437 11.7625L14.857 12.8219C15.1829 12.8273 15.5722 12.8438 15.8908 12.8116C15.9324 12.9705 15.9261 13.6561 15.9282 13.8604L14.8598 13.8719L14.8572 12.8284C14.5126 12.8194 14.1531 12.8033 13.8105 12.8276C13.8091 12.479 13.8191 12.1165 13.8237 11.7666Z" fill="#A6202F"/>
<path shape-rendering="auto" d="M22.2026 11.7574C22.1976 12.1095 22.1957 12.4615 22.1971 12.8136L21.1395 12.8319L21.1335 13.8735L20.0668 13.8638C20.0771 13.568 20.0788 13.1088 20.109 12.8269C20.451 12.8333 20.799 12.8165 21.1413 12.8039L21.1496 11.7605C21.4963 11.7663 21.8549 11.7596 22.2026 11.7574Z" fill="#A6202F"/>
<path shape-rendering="auto" d="M11.7479 10.7235C12.426 10.7103 13.1207 10.7356 13.7899 10.7192C13.7909 10.9577 13.7818 11.3703 13.8055 11.5938L13.7686 11.7202C13.5603 11.8068 12.0545 11.762 11.7164 11.7579L11.7215 10.7489L11.7479 10.7235Z" fill="#A6202F"/>
<path shape-rendering="auto" d="M22.2099 10.7066C22.7299 10.7208 23.4805 10.742 23.9913 10.7056C24.0698 10.7141 24.2151 10.7115 24.2445 10.761C24.3836 10.9951 24.279 11.4671 24.2971 11.7611C23.5989 11.7674 22.9007 11.7662 22.2026 11.7574L22.2099 10.7066Z" fill="#A6202F"/>
<path shape-rendering="auto" d="M1.2779 20.1394L2.29012 20.1334C2.29128 20.51 2.31212 21.8728 2.26129 22.1754L2.19894 22.226C1.88329 22.234 1.5676 22.2389 1.25182 22.2407L1.24933 21.1785C1.27928 20.8124 1.27923 20.5078 1.2779 20.1394Z" fill="#A6202F"/>
<path shape-rendering="auto" d="M33.7269 20.1382L34.7335 20.1326C34.7233 20.686 34.7206 21.2394 34.7256 21.7929L34.7287 22.2352L33.7307 22.2275C33.6732 21.6857 33.7148 20.7156 33.7269 20.1382Z" fill="#A6202F"/>
<path shape-rendering="auto" d="M32.6786 13.8822C32.9573 13.8439 33.4166 13.8583 33.7117 13.8593C33.709 14.2095 33.7129 14.5596 33.7236 14.9097L32.6395 14.8974C32.6092 14.6417 32.6275 14.2165 32.6327 13.9452L32.6786 13.8822Z" fill="#C7273F"/>
<path shape-rendering="auto" d="M32.6527 20.0469L32.6468 20.1364C32.6548 20.3656 32.7063 21.0087 32.5959 21.1813L31.6474 21.2079C31.5711 21.0355 31.6048 20.3498 31.6126 20.1418L32.5175 20.1166L32.6527 20.0469Z" fill="#C7273F"/>
<path shape-rendering="auto" d="M32.6526 20.0469L32.6468 20.1364C32.6547 20.3656 32.7063 21.0087 32.5958 21.1813C32.4894 21.0031 32.5187 20.3571 32.5175 20.1166L32.6526 20.0469Z" fill="#A6202F"/>
<path shape-rendering="auto" d="M21.1389 21.2029C21.4009 21.1605 21.8771 21.1552 22.1398 21.1901L22.2003 21.2584C22.1842 21.5393 22.2074 22.0519 22.1858 22.2528C21.7998 22.2212 21.5458 22.2255 21.1565 22.2382L21.1389 21.2029Z" fill="#A6202F"/>
<path shape-rendering="auto" d="M13.8321 21.2003C14.1085 21.1793 14.5906 21.1677 14.8589 21.2008L14.8589 22.2322L14.3216 22.2346C14.1879 22.2129 13.955 22.2138 13.8112 22.2103C13.8061 21.892 13.8241 21.5224 13.8321 21.2003Z" fill="#A6202F"/>
<path shape-rendering="auto" d="M20.1054 20.1471C20.4489 20.1351 20.7926 20.1304 21.1363 20.133C21.1381 20.474 21.2306 20.9549 21.0395 21.1517C20.9061 21.2044 20.7843 21.1857 20.6406 21.1778C20.4777 21.1727 20.2759 21.1809 20.1096 21.1829C20.1043 20.8446 20.1013 20.5062 20.1006 20.1679L20.1054 20.1471Z" fill="#A6202F"/>
<path shape-rendering="auto" d="M12.7724 22.2449C13.1159 22.2372 13.4466 22.2274 13.7906 22.2431L13.7931 23.2803L12.7636 23.2799C12.7576 22.9426 12.768 22.5839 12.7724 22.2449Z" fill="#A6202F"/>
<path shape-rendering="auto" d="M22.2057 22.2717C22.3658 22.2115 23.0259 22.2364 23.2339 22.2389C23.2388 22.4681 23.2617 23.1002 23.2174 23.2876C22.9749 23.2629 22.4673 23.2766 22.2051 23.2762C22.2122 22.9414 22.2124 22.6065 22.2057 22.2717Z" fill="#A6202F"/>
<path shape-rendering="auto" d="M31.594 23.283C31.9468 23.2883 32.3075 23.298 32.6595 23.2911C32.6573 23.5318 32.6388 24.1272 32.67 24.3373C32.3308 24.3032 31.9648 24.3172 31.6219 24.3226C31.6194 24.0289 31.628 23.5603 31.594 23.283Z" fill="#A6202F"/>
<path shape-rendering="auto" d="M0.207971 11.7577C0.538491 11.7693 0.917518 11.7594 1.2519 11.7584C1.24855 12.0913 1.23811 12.4525 1.24739 12.783L0.207214 12.7917L0.207971 11.7577Z" fill="#A6202F"/>
<path shape-rendering="auto" d="M1.2347 19.0845C1.23642 19.2936 1.26044 19.9712 1.20024 20.1295L0.205139 20.1366L0.216276 19.1047C0.514716 19.1018 0.947669 19.11 1.2347 19.0845Z" fill="#A6202F"/>
<path shape-rendering="auto" d="M12.7636 23.2799C12.7583 23.6294 12.7559 23.979 12.7565 24.3285C12.3856 24.3155 12.0942 24.3216 11.7227 24.3378L11.716 24.3192L11.7313 23.2935C12.0264 23.3091 12.4585 23.287 12.7636 23.2799Z" fill="#A6202F"/>
<path shape-rendering="auto" d="M14.8701 20.1449C15.1089 20.1389 15.7208 20.0941 15.9025 20.2009C15.9021 20.3848 15.9194 21.0762 15.8631 21.1998C15.5483 21.1648 15.1895 21.1767 14.8692 21.1791L14.8701 20.1449Z" fill="#A6202F"/>
<path shape-rendering="auto" d="M24.2739 23.2827C24.2729 23.3931 24.2676 23.514 24.2803 23.6225L24.2778 24.2996C24.0389 24.3049 23.5841 24.3037 23.3668 24.341L23.2851 24.3199C23.2179 24.1792 23.241 23.5008 23.2402 23.3058C23.4279 23.2798 24.0536 23.2858 24.2739 23.2827Z" fill="#A6202F"/>
<path shape-rendering="auto" d="M3.34847 23.3011C3.66958 23.3014 4.07494 23.3122 4.38844 23.2905L4.3783 24.3209C4.13441 24.3162 3.63593 24.2935 3.41735 24.3324C3.38732 24.3293 3.37713 24.3108 3.34499 24.2847L3.34134 24.0919L3.34847 23.3011Z" fill="#A6202F"/>
<path shape-rendering="auto" d="M32.6536 22.2361L33.6864 22.2407C33.6848 22.5236 33.6681 23.0167 33.7098 23.2787L32.6957 23.277L32.6536 22.2361Z" fill="#A6202F"/>
<path shape-rendering="auto" d="M34.7549 11.7603C35.0829 11.7633 35.4662 11.7759 35.7894 11.7615C35.7905 12.0732 35.7809 12.4572 35.7947 12.7627C35.5271 12.7899 35.0303 12.7824 34.7552 12.7849C34.7617 12.4434 34.7616 12.1018 34.7549 11.7603Z" fill="#A6202F"/>
<path shape-rendering="auto" d="M34.7712 19.0996C35.0903 19.1136 35.4637 19.1064 35.7872 19.1082L35.7926 20.1346C35.4921 20.129 35.0905 20.1108 34.7987 20.1286C34.7233 20.0237 34.766 19.2763 34.7712 19.0996Z" fill="#A6202F"/>
<path shape-rendering="auto" d="M2.32005 22.2428L3.34575 22.2363C3.33626 22.5142 3.30459 23.0121 3.31997 23.2732L2.28726 23.2823C2.33307 23.0006 2.31988 22.5422 2.32005 22.2428Z" fill="#A6202F"/>
<path shape-rendering="auto" d="M32.6556 12.9966C32.6559 13.1996 32.6456 13.7076 32.6786 13.8822L32.6327 13.9452C32.5935 13.887 32.5082 13.8478 32.444 13.811C32.6032 13.5388 32.3917 13.3118 32.6556 12.9966Z" fill="#A6202F"/>
<path shape-rendering="auto" d="M3.34689 12.7953C5.77148 12.8678 8.23514 12.7587 10.6638 12.808C10.9995 12.8148 11.3973 12.8247 11.7306 12.8073C11.7144 13.1563 11.7073 13.5057 11.7094 13.8551C12.0508 13.8564 12.4177 13.8648 12.7569 13.8565L12.7558 14.9228C13.1336 14.8987 13.4285 14.9064 13.8083 14.9183C13.8204 15.2587 13.8269 15.5992 13.8277 15.9398C14.1747 15.9378 14.5216 15.9399 14.8686 15.9461L14.865 19.0994L13.8722 19.0912L13.8073 19.189L13.7985 21.169L12.7807 21.1816C12.7703 21.5212 12.754 21.8762 12.7513 22.2144L11.7123 22.2383C11.7114 22.4578 11.7176 22.7189 11.6948 22.9339C11.6905 23.1184 11.7224 23.1443 11.6312 23.2631C11.1509 23.3263 10.0583 23.3004 9.52532 23.3021C8.15535 23.3176 6.78516 23.3081 5.41553 23.2735C5.43031 22.9341 5.43908 22.5944 5.44187 22.2546L5.37978 22.232C5.05098 22.227 4.7221 22.2277 4.3933 22.2344L4.38007 21.2019L3.48069 21.1641L3.39359 21.1492C3.28574 21.0171 3.35118 20.3679 3.36287 20.1824C3.25442 20.1054 2.48399 20.1351 2.2981 20.1363C2.28955 19.4477 2.29205 18.7589 2.30562 18.0703L2.28496 18.0554C2.0363 18.0233 1.49798 18.0538 1.24559 18.072C1.21748 17.0546 1.24301 15.922 1.24584 14.896C1.64253 14.9077 1.90528 14.9061 2.30038 14.8779C2.27284 14.6429 2.28964 14.1165 2.29123 13.8591L3.31088 13.8637C3.35969 13.6624 3.3462 13.0354 3.34689 12.7953Z" fill="#D97F52" fill-opacity="0.4"/>
<path shape-rendering="auto" d="M3.34689 12.7953C5.77148 12.8678 8.23514 12.7587 10.6638 12.808C10.9995 12.8148 11.3973 12.8247 11.7306 12.8073C11.7144 13.1563 11.7073 13.5057 11.7094 13.8551C12.0509 13.8564 12.4177 13.8648 12.7569 13.8565L12.7558 14.9228C13.1336 14.8987 13.4285 14.9064 13.8083 14.9183C13.8204 15.2587 13.8269 15.5992 13.8277 15.9398C14.1747 15.9378 14.5216 15.9399 14.8686 15.9461L14.865 19.0994L13.8722 19.0912C13.7761 18.9564 13.8237 16.2727 13.8288 15.9562C13.4794 15.9476 13.1108 15.9564 12.7598 15.9592C12.816 15.7165 12.7298 15.1616 12.6902 14.8976C12.3999 14.9089 12.0555 14.891 11.7607 14.8826C11.7119 14.5436 11.689 14.1785 11.6613 13.8352C9.7619 13.9242 7.85603 13.8454 5.95595 13.8619C5.56356 13.8653 3.53483 13.7695 3.33696 13.9411C3.3297 14.1323 3.31371 14.7495 3.28707 14.8999C2.97095 14.9039 2.65474 14.9039 2.33862 14.9C2.2816 15.0799 2.26347 17.7249 2.28496 18.0554C2.0363 18.0233 1.49798 18.0538 1.24559 18.072C1.21748 17.0546 1.24301 15.922 1.24584 14.896C1.64253 14.9077 1.90528 14.9061 2.30038 14.8779C2.27284 14.6429 2.28964 14.1165 2.29123 13.8591L3.31088 13.8637C3.35969 13.6624 3.3462 13.0354 3.34689 12.7953Z" fill="#C7273F"/>
<path shape-rendering="auto" d="M3.36351 18.0406C3.36646 18.0518 3.36898 18.063 3.37249 18.074L3.3648 18.0746C3.34671 18.3648 3.29066 19.9774 3.40969 20.1313L3.36287 20.1826C3.25445 20.1057 2.48445 20.1352 2.29827 20.1365C2.28972 19.4478 2.29175 18.7587 2.30533 18.0701C2.44543 18.0358 2.93882 18.0358 3.36351 18.0406Z" fill="#C7273F"/>
<path shape-rendering="auto" d="M5.44187 22.2547C7.33168 22.1169 9.79623 22.3531 11.6961 22.2388C11.6942 22.449 11.6832 22.7295 11.6948 22.9339C11.6905 23.1185 11.7224 23.1443 11.6312 23.2631C11.1509 23.3263 10.0583 23.3005 9.52532 23.3022C8.15534 23.3177 6.78516 23.3081 5.41553 23.2736C5.43031 22.9341 5.43907 22.5944 5.44187 22.2547Z" fill="#C7273F"/>
<path shape-rendering="auto" d="M12.7667 19.1026C12.9997 19.1007 13.6994 19.0215 13.8073 19.1891L13.7985 21.1691L12.7807 21.1817C12.7703 21.5213 12.754 21.8763 12.7513 22.2145L11.7123 22.2384C11.6752 22.0622 11.7204 21.4083 11.7296 21.1939C12.0773 21.2082 12.4109 21.1878 12.7577 21.1711C12.7712 20.4746 12.7869 19.7995 12.7667 19.1026Z" fill="#C7273F"/>
<path shape-rendering="auto" d="M3.40939 20.1316L3.51746 20.1184C3.81188 20.1308 4.08654 20.1432 4.38135 20.1372C4.38349 20.484 4.38805 20.8308 4.39501 21.1775C4.71242 21.1806 5.14262 21.1967 5.44839 21.1637C5.45247 21.392 5.50287 22.0966 5.37977 22.232C5.05097 22.227 4.72209 22.2278 4.39329 22.2344L4.38006 21.2019L3.48068 21.1641L3.39358 21.1492C3.28573 21.0171 3.35117 20.368 3.36286 20.1824L3.40939 20.1316Z" fill="#C7273F"/>
<path shape-rendering="auto" d="M3.40939 20.1316L3.51746 20.1184C3.4271 20.4118 3.53112 21.0021 3.48068 21.1641L3.39358 21.1492C3.28573 21.0171 3.35117 20.368 3.36286 20.1824L3.40939 20.1316Z" fill="#A6202F"/>
<path shape-rendering="auto" d="M16.9462 14.9018C17.6514 14.8929 18.3567 14.8952 19.0619 14.9086C19.0712 15.2667 19.0643 15.569 19.0496 15.9274L16.9472 15.9295C16.9324 15.603 16.9435 15.232 16.9462 14.9018Z" fill="#A6202F"/>
</g>
<defs>
<clipPath id="clip0_68_2731">
<rect width="42" height="42" fill="white"/>
</clipPath>
</defs>
</svg>
